<?xml version="1.0" encoding="UTF-8"?><!DOCTYPE svg PUBLIC "-//W3C//DTD SVG 1.1//EN" "http://www.w3.org/Graphics/SVG/1.1/DTD/svg11.dtd"><svg xmlns="http://www.w3.org/2000/svg"><symbol id="arrow-down" viewBox="0 0 24 24"><title/><g fill-rule="evenodd"><path d="M12 15.081l-3.036-3.035-.707.707 4.243 4.242 4.243-4.242-.707-.707-3.038 3.037V6H12v9.081zM1 11.5C1 5.149 6.149 0 12.5 0S24 5.149 24 11.5 18.851 23 12.5 23 1 17.851 1 11.5zm22 0C23 5.701 18.299 1 12.5 1S2 5.701 2 11.5 6.701 22 12.5 22 23 17.299 23 11.5z"/></g></symbol><symbol id="simplebitdesign" viewBox="0 0 30 33"><title>Logo</title><path d="M25.575 13.466l-.088-.069.076-.081a6.27 6.27 0 0 0 1.796-4.373c-.004-1.71-.741-3.22-1.829-4.4a35.01 35.01 0 0 0-2.773-2.728C21.545.744 19.999 0 18.246 0h-7.48C4.83 0 0 4.738 0 10.56c0 5.823 4.83 10.558 10.766 10.558l5.326.001c1.187 0 2.154-.948 2.154-2.113s-.967-2.113-2.154-2.113l-5.326-.002c-3.557 0-6.458-2.84-6.455-6.334 0-3.487 2.894-6.33 6.455-6.329h7.707c1.191 0 2.158.95 2.158 2.118 0 1.13-.903 2.052-2.06 2.104l-7.809-.005c-1.186 0-2.15.95-2.15 2.116 0 1.165.96 2.112 2.15 2.115h5.445c3.504.054 6.337 2.885 6.337 6.338 0 3.488-2.892 6.326-6.446 6.326H4.858c-1.19 0-2.154.948-2.154 2.112 0 .502.176.962.483 1.32a19.544 19.544 0 0 0 2.121 2.162c.624.553 1.433 1.229 3.23 1.229h10.207c5.93-.002 10.757-4.734 10.757-10.551 0-3.162-1.433-6.13-3.927-8.146" fill-rule="evenodd"/></symbol><symbol id="twitter" viewBox="0 0 24 24"><path d="M23.444 4.834c-.814.363-1.5.375-2.228.016.938-.562.981-.957 1.32-2.019-.878.521-1.851.9-2.886 1.104a4.545 4.545 0 0 0-7.742 4.145 12.897 12.897 0 0 1-9.366-4.748 4.525 4.525 0 0 0-.615 2.285c0 1.577.803 2.967 2.021 3.782a4.527 4.527 0 0 1-2.057-.568l-.001.057a4.547 4.547 0 0 0 3.646 4.456 4.575 4.575 0 0 1-2.053.079 4.551 4.551 0 0 0 4.245 3.155A9.138 9.138 0 0 1 1 18.459 12.865 12.865 0 0 0 7.966 20.5c8.358 0 12.928-6.924 12.928-12.929 0-.198-.003-.393-.012-.588.887-.64 1.953-1.237 2.562-2.149z"/></symbol></svg>