<svg xmlns="http://www.w3.org/2000/svg" viewBox="0 0 20 20" fill="currentColor">
  <g fill-rule="evenodd">
    <rect/>
    <path fill-rule="nonzero" d="M16.6666667,1.66666667 L3.33333333,1.66666667 C2.4125,1.66666667 1.675,2.4125 1.675,3.33333333 L1.66666667,18.3333333 L5,15 L16.6666667,15 C17.5875,15 18.3333333,14.2541667 18.3333333,13.3333333 L18.3333333,3.33333333 C18.3333333,2.4125 17.5875,1.66666667 16.6666667,1.66666667 Z M5,7.5 L15,7.5 L15,9.16666667 L5,9.16666667 L5,7.5 Z M11.6666667,11.6666667 L5,11.6666667 L5,10 L11.6666667,10 L11.6666667,11.6666667 Z M15,6.66666667 L5,6.66666667 L5,5 L15,5 L15,6.66666667 Z"/>
  </g>
</svg>
