<svg xmlns="http://www.w3.org/2000/svg" viewBox="0 0 22 24" fill="currentColor">
  <path fill-rule="evenodd" d="M18.8947961,9.99389474 L18.8296505,9.94294737 L18.8860388,9.88231579 C19.7410485,8.99768421 20.2098835,7.84652632 20.2126602,6.63726316 C20.2098835,5.36778947 19.6654369,4.24673684 18.8621165,3.37178947 C18.1784078,2.62484211 17.5854757,2.032 16.8129126,1.34736842 C15.9177476,0.552 14.7756699,-1.42108547e-14 13.480233,-1.42108547e-14 L7.95374757,-1.42108547e-14 C3.56848544,-1.42108547e-14 -7.10542736e-15,3.51621053 -7.10542736e-15,7.83768421 C-7.10542736e-15,12.1589474 3.56848544,15.6732632 7.95374757,15.6732632 L11.8885437,15.6741053 C12.7661942,15.6741053 13.480233,14.9698947 13.480233,14.1052632 C13.480233,13.2410526 12.7661942,12.5372632 11.8885437,12.5372632 L7.95374757,12.536 C5.32570874,12.536 3.18295146,10.4286316 3.18530097,7.83515789 C3.18530097,5.24736842 5.32314563,3.13684211 7.95374757,3.13789474 L13.6483301,3.13789474 C14.5281165,3.13789474 15.2423689,3.84336842 15.2423689,4.71010526 C15.2423689,5.54842105 14.5748932,6.23284211 13.7207379,6.27115789 C13.6972427,6.27115789 7.95139806,6.26736842 7.95139806,6.26736842 C7.07481553,6.26736842 6.36205825,6.972 6.36205825,7.83768421 C6.36205825,8.70231579 7.07246602,9.40526316 7.95139806,9.40757895 L11.973767,9.40757895 C14.5625049,9.44757895 16.6557087,11.5490526 16.6557087,14.1117895 C16.6557087,16.7004211 14.518932,18.8061053 11.8934563,18.8061053 L3.58941748,18.8061053 C2.70963107,18.8061053 1.99794175,19.5096842 1.99794175,20.3736842 C1.99794175,20.7461053 2.12801942,21.0882105 2.35464078,21.3536842 C2.90314563,21.9949474 3.27650485,22.3835789 3.92176699,22.9578947 C4.38269903,23.3684211 4.98054369,23.8701053 6.30823301,23.8701053 L13.8491068,23.8707368 C18.2296699,23.8688421 21.796233,20.3566316 21.796233,16.0393684 C21.796233,13.6926316 20.7378835,11.4905263 18.8947961,9.99389474"/>
</svg>
