<svg xmlns="http://www.w3.org/2000/svg" viewBox="0 0 20 20" fill="currentColor">
  <g fill-rule="evenodd">
    <rect/>
    <path fill-rule="nonzero" d="M12.5,7.5 L9.975,7.5 L9.16666667,5 L8.35833333,7.5 L5.83333333,7.5 L7.89166667,8.96666667 L7.10833333,11.3916667 L9.16666667,9.89166667 L11.225,11.3916667 L10.4416667,8.96666667 L12.5,7.5 Z M12.5,7.5 L9.975,7.5 L9.16666667,5 L8.35833333,7.5 L5.83333333,7.5 L7.89166667,8.96666667 L7.10833333,11.3916667 L9.16666667,9.89166667 L11.225,11.3916667 L10.4416667,8.96666667 L12.5,7.5 Z M19.1666667,9.17083333 L15,9.16666667 C14.5416667,9.16666667 14.1666667,9.54166667 14.1666667,10 L14.1666667,17.5 C14.1666667,17.9583333 14.5416667,18.3333333 15,18.3333333 L19.1666667,18.3333333 C19.625,18.3333333 20,17.9583333 20,17.5 L20,10 C20,9.54166667 19.625,9.17083333 19.1666667,9.17083333 Z M19.1666667,16.6666667 L15,16.6666667 L15,10.8333333 L19.1666667,10.8333333 L19.1666667,16.6666667 Z M16.6666667,1.66666667 L1.66666667,1.66666667 C0.741666667,1.66666667 0,2.40833333 0,3.33333333 L0,13.3333333 C0,14.25 0.741666667,15 1.66666667,15 L7.5,15 L7.5,16.6666667 L5.83333333,16.6666667 L5.83333333,18.3333333 L12.5,18.3333333 L12.5,16.6666667 L10.8333333,16.6666667 L10.8333333,15 L12.5,15 L12.5,13.3333333 L1.66666667,13.3333333 L1.66666667,3.33333333 L16.6666667,3.33333333 L16.6666667,7.5 L18.3333333,7.5 L18.3333333,3.33333333 C18.3333333,2.40833333 17.5833333,1.66666667 16.6666667,1.66666667 Z M9.975,7.5 L9.16666667,5 L8.35833333,7.5 L5.83333333,7.5 L7.89166667,8.96666667 L7.10833333,11.3916667 L9.16666667,9.89166667 L11.225,11.3916667 L10.4416667,8.96666667 L12.5,7.5 L9.975,7.5 Z"/>
  </g>
</svg>
