<?xml version="1.0" encoding="UTF-8" standalone="no"?>
<svg width="320px" height="153px" viewBox="0 0 320 153" version="1.1" xmlns="http://www.w3.org/2000/svg" xmlns:xlink="http://www.w3.org/1999/xlink" xmlns:sketch="http://www.bohemiancoding.com/sketch/ns">
    <title>Cookie</title>
    <g id="Mobile" stroke="none" stroke-width="1" fill="none" fill-rule="evenodd" sketch:type="MSPage">
        <g id="Mobile-/-Homepage" sketch:type="MSArtboardGroup" transform="translate(0.000000, -4215.000000)">
            <g id="Mobile:-Footer" sketch:type="MSLayerGroup" transform="translate(0.000000, 3670.000000)">
                <g id="Bitmap" transform="translate(0.000000, 170.000000)" sketch:type="MSShapeGroup">
                    <g id="1444971659_cookie" transform="translate(160.000000, 536.000000) rotate(-105.000000) translate(-160.000000, -536.000000) translate(0.000000, 376.000000)">
                        <g id="Group">
                            <g>
                                <circle id="Oval" fill="#453F3C" cx="160" cy="160" r="160"></circle>
                                <circle id="Oval" fill="#99827A" cx="160" cy="160" r="150"></circle>
                                <g transform="translate(10.000000, 10.000000)" id="Shape" opacity="0.14">
                                    <path d="M150,5 C230,5 295,70 295,150 L300,150 C300,67.25 232.75,0 150,0 C67.25,0 0,67.25 0,150 L5,150 C5,70 70,5 150,5 L150,5 Z" fill="#FFFFFF"></path>
                                    <path d="M150,295 C70,295 5,230 5,150 L0,150 C0,232.75 67.25,300 150,300 C232.75,300 300,232.75 300,150 L295,150 C295,230 230,295 150,295 L150,295 Z" fill="#000000"></path>
                                </g>
                            </g>
                            <g transform="translate(37.500000, 62.500000)" id="Shape">
                                <g transform="translate(0.000000, 5.000000)" fill="#FFFFFF" opacity="0.14">
                                    <path d="M20,215 L97.5,120 L122.5,115 L190,22.5 L125,120 L100,125 L30,222.5 L20,215 Z"></path>
                                </g>
                                <path d="M20,215 L97.5,120 L122.5,115 L195,20 L125,120 L100,125 L30,222.5 L20,215 Z" fill="#453F3C"></path>
                            </g>
                            <g transform="translate(37.500000, 27.500000)" id="Shape" fill="#453F3C">
                                <path d="M110,225 L112.5,220 L117.5,220 L117.5,227.5 L115,227.5 L110,225 Z"></path>
                                <path d="M222.5,165 L220,157.5 L207.5,155 L197.5,167.5 L197.5,172.5 L210,175 L217.5,170 L222.5,165 Z"></path>
                                <path d="M160,20 L155,22.5 L155,25 L150,30 L152.5,32.5 L157.5,30 L160,32.5 L165,27.5 L165,22.5 L160,20 Z"></path>
                                <path d="M210,60 L212.5,55 L217.5,55 L217.5,62.5 L215,62.5 L210,60 Z"></path>
                                <path d="M242.5,115 L237.5,115 L232.5,120 L235,122.5 L237.5,127.5 L240,127.5 L242.5,122.5 L242.5,115 Z"></path>
                                <path d="M202.5,245 L197.5,245 L192.5,250 L195,252.5 L197.5,257.5 L200,257.5 L202.5,252.5 L202.5,245 Z"></path>
                                <path d="M182.5,97.5 L180,100 L182.5,102.5 L185,97.5 L182.5,97.5 Z"></path>
                                <path d="M100,257.5 L97.5,260 L100,262.5 L102.5,257.5 L100,257.5 Z"></path>
                                <path d="M230,197.5 L232.5,200 L230,202.5 L227.5,197.5 L230,197.5 Z"></path>
                                <path d="M125,287.5 L132.5,272.5 L142.5,267.5 L157.5,285 L125,287.5 Z"></path>
                                <path d="M260,65 L252.5,75 L255,87.5 L262.5,92.5 L272.5,92.5 L260,65 Z"></path>
                            </g>
                            <g transform="translate(85.000000, 102.500000)" id="Shape">
                                <g transform="translate(87.500000, 80.000000)">
                                    <path d="M2.5,27.5 L2.5,15 L15,0 L35,2.5 L37.5,17.5 L30,25 L20,30 L2.5,27.5 Z" fill="#453F3C"></path>
                                    <path d="M32.5,15 L30,7.5 L17.5,5 L7.5,17.5 L7.5,22.5 L20,25 L27.5,20 L32.5,15 Z" fill="#7A6862"></path>
                                    <path d="M30,20 L27.5,10 L20,10 L10,17.5 L10,25 L0,25 L0,0 L37.5,0 L37.5,20 L30,20 Z" opacity="0.24" fill="#000000"></path>
                                    <path d="M15,20 L17.5,22.5 L20,22.5 L20,20 L15,17.5 L15,20 Z" fill="#453F3C"></path>
                                    <path d="M25,10 L22.5,10 L20,12.5 L22.5,15 L25,12.5 L25,10 Z" fill="#453F3C"></path>
                                </g>
                                <g transform="translate(155.000000, 0.000000)">
                                    <path d="M0,20 L2.5,5 L17.5,0 L25,7.5 L25,17.5 L10,25 L0,20 Z" fill="#453F3C"></path>
                                    <path d="M15,5 L7.5,7.5 L5,17.5 L10,20 L20,15 L20,10 L15,5 Z" fill="#7A6862"></path>
                                    <path d="M7.5,22.5 L10,12.5 L12.5,10 L15,10 L17.5,12.5 L17.5,22.5 L25,22.5 L25,0 L0,0 L0,22.5 L7.5,22.5 Z" opacity="0.24" fill="#000000"></path>
                                    <path d="M12.5,12.5 L10,15 L12.5,15 L12.5,12.5 Z" fill="#453F3C"></path>
                                </g>
                            </g>
                        </g>
                    </g>
                </g>
            </g>
        </g>
    </g>
</svg>