<?xml version="1.0" encoding="UTF-8" standalone="no"?>
<svg width="205px" height="65px" viewBox="0 0 205 65" version="1.1" xmlns="http://www.w3.org/2000/svg" xmlns:xlink="http://www.w3.org/1999/xlink">
    <!-- Generator: Sketch 3.6.1 (26313) - http://www.bohemiancoding.com/sketch -->
    <title>1444971659_cookie</title>
    <desc>Created with Sketch.</desc>
    <defs>
        <rect id="path-1" x="0" y="0" width="205" height="65"></rect>
    </defs>
    <g id="Desktop" stroke="none" stroke-width="1" fill="none" fill-rule="evenodd">
        <g id="1444971659_cookie">
            <mask id="mask-2" fill="white">
                <use xlink:href="#path-1"></use>
            </mask>
            <use id="Mask" xlink:href="#path-1"></use>
            <g mask="url(#mask-2)" id="Group">
                <g transform="translate(102.868157, 111.998556) rotate(-105.000000) translate(-102.868157, -111.998556) translate(-10.131843, -1.001444)">
                    <g transform="translate(0.000000, 0.000000)">
                        <g transform="translate(-0.000000, -0.000000)">
                            <ellipse id="Oval" fill="#453F3C" cx="112.549861" cy="112.549861" rx="112.549861" ry="112.549861"></ellipse>
                            <ellipse id="Oval" fill="#99827A" cx="112.549861" cy="112.549861" rx="105.515495" ry="105.515495"></ellipse>
                            <g transform="translate(7.034366, 7.034366)" id="Shape" opacity="0.14">
                                <path d="M105.515495,3.51718317 C161.790426,3.51718317 207.513807,49.2405643 207.513807,105.515495 L211.03099,105.515495 C211.03099,47.3061136 163.724876,-6.67910172e-13 105.515495,-6.67910172e-13 C47.3061136,-6.67910172e-13 1.70530257e-13,47.3061136 1.70530257e-13,105.515495 L3.51718317,105.515495 C3.51718317,49.2405643 49.2405643,3.51718317 105.515495,3.51718317 L105.515495,3.51718317 Z" fill="#FFFFFF"></path>
                                <path d="M105.515495,207.513807 C49.2405643,207.513807 3.51718317,161.790426 3.51718317,105.515495 L-8.52651283e-13,105.515495 C-8.52651283e-13,163.724876 47.3061136,211.03099 105.515495,211.03099 C163.724876,211.03099 211.03099,163.724876 211.03099,105.515495 L207.513807,105.515495 C207.513807,161.790426 161.790426,207.513807 105.515495,207.513807 L105.515495,207.513807 Z" fill="#000000"></path>
                            </g>
                        </g>
                        <g transform="translate(26.378874, 43.964790)" id="Shape">
                            <g transform="translate(0.000000, 3.517183)" fill="#FFFFFF" opacity="0.14">
                                <path d="M14.0687327,151.238876 L68.5850718,84.412396 L86.1709876,80.8952128 L133.65296,15.8273243 L87.9295792,84.412396 L70.3436633,87.9295792 L21.103099,156.514651 L14.0687327,151.238876 Z"></path>
                            </g>
                            <path d="M14.0687327,151.238876 L68.5850718,84.412396 L86.1709876,80.8952128 L137.170144,14.0687327 L87.9295792,84.412396 L70.3436633,87.9295792 L21.103099,156.514651 L14.0687327,151.238876 Z" fill="#453F3C"></path>
                        </g>
                        <g transform="translate(26.378874, 19.344507)" id="Shape" fill="#453F3C">
                            <path d="M156.514651,116.067045 L154.756059,110.79127 L145.963101,109.032678 L138.928735,117.825636 L138.928735,121.342819 L147.721693,123.101411 L152.997468,119.584228 L156.514651,116.067045 Z"></path>
                            <path d="M147.721693,42.206198 L149.480285,38.6890148 L152.997468,38.6890148 L152.997468,43.9647896 L151.238876,43.9647896 L147.721693,42.206198 Z"></path>
                            <path d="M170.583384,80.8952128 L167.0662,80.8952128 L163.549017,84.412396 L165.307609,86.1709876 L167.0662,89.6881708 L168.824792,89.6881708 L170.583384,86.1709876 L170.583384,80.8952128 Z"></path>
                            <path d="M142.445918,172.341975 L138.928735,172.341975 L135.411552,175.859158 L137.170144,177.61775 L138.928735,181.134933 L140.687327,181.134933 L142.445918,177.61775 L142.445918,172.341975 Z"></path>
                            <path d="M161.790426,138.928735 L163.549017,140.687327 L161.790426,142.445918 L160.031834,138.928735 L161.790426,138.928735 Z"></path>
                            <path d="M87.9295792,202.238032 L93.2053539,191.686483 L100.23972,188.169299 L110.79127,200.479441 L87.9295792,202.238032 Z"></path>
                            <path d="M182.893525,45.7233812 L177.61775,52.7577475 L179.376342,61.5507054 L184.652116,65.0678886 L191.686483,65.0678886 L182.893525,45.7233812 Z"></path>
                        </g>
                        <g transform="translate(59.792114, 72.102255)" id="Shape">
                            <g transform="translate(109.032678, -0.000000)">
                                <path d="M-1.33582034e-12,14.0687327 L1.75859158,3.51718317 L12.3101411,-2.55795385e-13 L17.5859158,5.27577475 L17.5859158,12.3101411 L7.03436633,17.5859158 L-1.33582034e-12,14.0687327 Z" fill="#453F3C"></path>
                                <path d="M10.5515495,3.51718317 L5.27577475,5.27577475 L3.51718317,12.3101411 L7.03436633,14.0687327 L14.0687327,10.5515495 L14.0687327,7.03436633 L10.5515495,3.51718317 Z" fill="#7A6862"></path>
                                <path d="M5.27577475,15.8273243 L7.03436633,8.79295792 L8.79295792,7.03436633 L10.5515495,7.03436633 L12.3101411,8.79295792 L12.3101411,15.8273243 L17.5859158,15.8273243 L17.5859158,-3.55271368e-13 L-1.30739863e-12,-3.55271368e-13 L-1.30739863e-12,15.8273243 L5.27577475,15.8273243 Z" fill="#000000" opacity="0.24"></path>
                                <path d="M8.79295792,8.79295792 L7.03436633,10.5515495 L8.79295792,10.5515495 L8.79295792,8.79295792 Z" fill="#453F3C"></path>
                            </g>
                        </g>
                    </g>
                </g>
            </g>
        </g>
    </g>
</svg>