<?xml version="1.0" encoding="UTF-8" standalone="no"?>
<svg width="84px" height="90px" viewBox="0 0 84 90" version="1.1" xmlns="http://www.w3.org/2000/svg" xmlns:xlink="http://www.w3.org/1999/xlink" xmlns:sketch="http://www.bohemiancoding.com/sketch/ns">
    <!-- Generator: Sketch 3.4 (15575) - http://www.bohemiancoding.com/sketch -->
    <title>Logo</title>
    <desc>Created with Sketch.</desc>
    <defs></defs>
    <g id="Mobile" stroke="none" stroke-width="1" fill="none" fill-rule="evenodd" sketch:type="MSPage">
        <g id="Mobile-/-Homepage" sketch:type="MSArtboardGroup" transform="translate(-24.000000, -24.000000)" fill="#FFFFFF">
            <g id="Header-/-Open-/-Mobile" sketch:type="MSLayerGroup">
                <g id="Bitmap" transform="translate(24.000000, 24.000000)" sketch:type="MSShapeGroup">
                    <path d="M72.8182192,37.6800487 L72.567156,37.4879615 L72.7844697,37.2593618 C76.079572,33.9240294 77.8864042,29.5838111 77.8971052,25.024518 C77.8864042,20.2382128 75.788174,16.0115005 72.692276,12.7126806 C70.0573467,9.89645988 67.7722596,7.6612633 64.7948964,5.07999224 C61.3450405,2.08120932 56.9436137,0 51.9511593,0 L30.6527644,0 C13.7525038,0 0,13.2571922 0,29.5504736 C0,45.8429612 13.7525038,59.0930097 30.6527644,59.0930097 L45.8169845,59.0961847 C49.1993415,59.0961847 51.9511593,56.441095 51.9511593,53.1811688 C51.9511593,49.92283 49.1993415,47.2693278 45.8169845,47.2693278 L30.6527644,47.2645653 C20.5246261,47.2645653 12.2667033,39.3191399 12.275758,29.5409486 C12.275758,19.7841885 20.5147483,11.8268569 30.6527644,11.8308257 L52.5989848,11.8308257 C55.9895733,11.8308257 58.7422143,14.4906779 58.7422143,17.7585416 C58.7422143,20.9192493 56.169845,23.4997266 52.8780354,23.6441889 C52.787488,23.6441889 30.6437097,23.6299014 30.6437097,23.6299014 C27.2654685,23.6299014 24.5185897,26.2865786 24.5185897,29.5504736 C24.5185897,32.8103999 27.2564138,35.4607271 30.6437097,35.4694583 L46.1454246,35.4694583 C56.1221018,35.6202706 64.189052,43.543471 64.189052,53.205775 C64.189052,62.9657101 55.9541775,70.9047854 45.8359171,70.9047854 L13.8331733,70.9047854 C10.4425847,70.9047854 7.69982165,73.5574939 7.69982165,76.8150389 C7.69982165,78.2191805 8.20112498,79.5090223 9.07449582,80.5099395 C11.188366,82.9276983 12.6272465,84.3929586 15.1140074,86.5583053 C16.8903828,88.1061154 19.1944025,89.9976188 24.3111538,89.9976188 L53.3727535,90 C70.2549047,89.9928563 84,76.7507452 84,60.4733389 C84,51.6254211 79.9212512,43.3228088 72.8182192,37.6800487" id="Logo"></path>
                </g>
            </g>
        </g>
    </g>
</svg>