<?xml version="1.0" encoding="UTF-8" standalone="no"?>
<svg width="197px" height="64px" viewBox="0 0 197 64" version="1.1" xmlns="http://www.w3.org/2000/svg" xmlns:xlink="http://www.w3.org/1999/xlink" xmlns:sketch="http://www.bohemiancoding.com/sketch/ns">
    <!-- Generator: Sketch 3.0.1 (7597) - http://www.bohemiancoding.com/sketch -->
    <title>Logo</title>
    <description>Created with Sketch.</description>
    <defs></defs>
    <g id="Page-1" stroke="none" stroke-width="1" fill="none" fill-rule="evenodd" sketch:type="MSPage">
        <g id="Dribbble-Shot" sketch:type="MSArtboardGroup" transform="translate(-78.000000, -81.000000)" fill="#000000">
            <g id="Logo" sketch:type="MSLayerGroup" transform="translate(78.000000, 81.000000)">
                <path d="M26.6929714,43.0230588 C25.1245405,43.0230588 23.6015941,42.8028257 22.1240868,42.3623529 C20.6465794,41.9218802 19.2600163,41.2385929 17.964356,40.3124706 L20.3851829,36.416 C21.4535344,37.1162388 22.5389178,37.64141 23.6413656,37.9915294 C24.7438134,38.3416488 25.7723705,38.5167059 26.7270675,38.5167059 C27.8181499,38.5167059 28.3636829,38.1891797 28.3636829,37.5341176 L28.3636829,37.4663529 C28.3636829,37.1049394 28.113647,36.8225893 27.6135675,36.6192941 C27.1134881,36.415999 26.3747455,36.1788249 25.3973175,35.9077647 C24.4880822,35.6818812 23.6356869,35.4164721 22.840106,35.1115294 C22.0445251,34.8065867 21.3512436,34.4338846 20.7602406,33.9934118 C20.1692377,33.552939 19.7032615,33.0164738 19.3622983,32.384 C19.0213351,31.7515262 18.850856,30.9722399 18.850856,30.0461176 L18.850856,29.9783529 C18.850856,29.007054 19.038383,28.1430626 19.4134425,27.3863529 C19.7885021,26.6296433 20.3056219,25.997179 20.9648175,25.4889412 C21.6240131,24.9807033 22.4025342,24.5910602 23.3004041,24.32 C24.1982739,24.0489398 25.1813699,23.9134118 26.2497214,23.9134118 C27.6135744,23.9134118 28.9546763,24.0997628 30.2730675,24.4724706 C31.5914587,24.8451783 32.7848122,25.3703496 33.8531637,26.048 L31.6369137,30.1138824 C30.6822166,29.5943503 29.7161686,29.1821192 28.7387406,28.8771765 C27.7613126,28.5722338 26.9089173,28.4197647 26.1815291,28.4197647 C25.6814496,28.4197647 25.3063957,28.5044697 25.056356,28.6738824 C24.8063163,28.843295 24.6812983,29.0522341 24.6812983,29.3007059 L24.6812983,29.3684706 C24.6812983,29.7298842 24.9370169,30.0178813 25.4484618,30.2324706 C25.9599066,30.4470599 26.7043319,30.701175 27.6817598,30.9948235 C28.5909952,31.2432954 29.4433905,31.5199985 30.2389714,31.8249412 C31.0345523,32.1298839 31.7278338,32.502586 32.3188368,32.9430588 C32.9098397,33.3835316 33.3758158,33.9199968 33.7167791,34.5524706 C34.0577423,35.1849443 34.2282214,35.9416427 34.2282214,36.8225882 L34.2282214,36.8903529 C34.2282214,37.9068286 34.046377,38.793408 33.6826829,39.5501176 C33.3189888,40.3068273 32.8075516,40.9449386 32.148356,41.4644706 C31.4891604,41.9840026 30.6935914,42.3736458 29.7616252,42.6334118 C28.829659,42.8931778 27.8067846,43.0230588 26.6929714,43.0230588 Z M37.024106,24.2861176 L43.5023752,24.2861176 L43.5023752,42.6164706 L37.024106,42.6164706 L37.024106,24.2861176 Z M36.8877214,17.8823529 L43.6387598,17.8823529 L43.6387598,22.6258824 L36.8877214,22.6258824 L36.8877214,17.8823529 Z M47.1165675,24.2861176 L53.5948368,24.2861176 L53.5948368,26.7934118 C54.1858397,26.0254079 54.9245823,25.3477676 55.8110868,24.7604706 C56.6975912,24.1731735 57.7886572,23.8795294 59.0843175,23.8795294 C60.3117852,23.8795294 61.3801207,24.1392915 62.289356,24.6588235 C63.1985913,25.1783555 63.9032381,25.9124658 64.4033175,26.8611765 C65.1988984,25.9350542 66.0853896,25.2065909 67.0628175,24.6757647 C68.0402455,24.1449385 69.2108684,23.8795294 70.5747214,23.8795294 C72.5523082,23.8795294 74.097985,24.4611707 75.2117983,25.6244706 C76.3256116,26.7877705 76.8825098,28.4423422 76.8825098,30.5882353 L76.8825098,42.6164706 L70.4042406,42.6164706 L70.4042406,32.6550588 C70.4042406,31.6385832 70.1769352,30.8762378 69.7223175,30.368 C69.2676999,29.8597622 68.6539752,29.6056471 67.8811252,29.6056471 C67.1082752,29.6056471 66.47182,29.8597622 65.9717406,30.368 C65.4716612,30.8762378 65.2216252,31.6385832 65.2216252,32.6550588 L65.2216252,42.6164706 L58.743356,42.6164706 L58.743356,32.6550588 C58.743356,31.6385832 58.5160506,30.8762378 58.0614329,30.368 C57.6068153,29.8597622 56.9930906,29.6056471 56.2202406,29.6056471 C55.4473906,29.6056471 54.8166181,29.8597622 54.3279041,30.368 C53.8391901,30.8762378 53.5948368,31.6385832 53.5948368,32.6550588 L53.5948368,42.6164706 L47.1165675,42.6164706 L47.1165675,24.2861176 Z M80.2239329,24.2861176 L86.7022021,24.2861176 L86.7022021,26.7256471 C87.0204345,26.3416451 87.3613926,25.980237 87.7250868,25.6414118 C88.0887809,25.3025865 88.492248,25.0032954 88.9355002,24.7435294 C89.3787524,24.4837634 89.8788244,24.2748243 90.435731,24.1167059 C90.9926376,23.9585874 91.6120449,23.8795294 92.2939714,23.8795294 C93.3850538,23.8795294 94.424976,24.0997625 95.4137695,24.5402353 C96.4025629,24.9807081 97.2720061,25.6075253 98.0221252,26.4207059 C98.7722444,27.2338864 99.3689211,28.2277588 99.8121733,29.4023529 C100.255426,30.576947 100.477048,31.8983456 100.477048,33.3665882 L100.477048,33.4343529 C100.477048,34.9251839 100.255426,36.2635235 99.8121733,37.4494118 C99.3689211,38.6353 98.777927,39.6404665 98.0391733,40.4649412 C97.3004196,41.2894159 96.436659,41.9218802 95.4478656,42.3623529 C94.4590722,42.8028257 93.4191499,43.0230588 92.3280675,43.0230588 C91.6234102,43.0230588 90.9926376,42.9496478 90.435731,42.8028235 C89.8788244,42.6559993 89.3730698,42.4640012 88.9184521,42.2268235 C88.4638345,41.9896459 88.0546847,41.7072958 87.6909906,41.3797647 C87.3272965,41.0522337 86.9977036,40.7190605 86.7022021,40.3802353 L86.7022021,48.0376471 L80.2239329,48.0376471 L80.2239329,24.2861176 Z M90.3163945,37.6357647 C91.3847459,37.6357647 92.2826024,37.2517685 93.0099906,36.4837647 C93.7373789,35.7157609 94.1010675,34.7105944 94.1010675,33.4682353 L94.1010675,33.4004706 C94.1010675,32.1806998 93.7373789,31.1868274 93.0099906,30.4188235 C92.2826024,29.6508197 91.3847459,29.2668235 90.3163945,29.2668235 C89.7935841,29.2668235 89.3048775,29.3684696 88.8502598,29.5717647 C88.3956422,29.7750598 87.9978577,30.063057 87.6568945,30.4357647 C87.3159312,30.8084725 87.0488473,31.2432916 86.8556348,31.7402353 C86.6624223,32.237179 86.5658175,32.7905852 86.5658175,33.4004706 L86.5658175,33.4682353 C86.5658175,34.0781207 86.6624223,34.6371739 86.8556348,35.1454118 C87.0488473,35.6536496 87.3159312,36.0941158 87.6568945,36.4668235 C87.9978577,36.8395313 88.3956422,37.1275284 88.8502598,37.3308235 C89.3048775,37.5341187 89.7935841,37.6357647 90.3163945,37.6357647 Z M103.409318,17.8823529 L109.887587,17.8823529 L109.887587,42.6164706 L103.409318,42.6164706 L103.409318,17.8823529 Z M118.650298,42.3623529 C117.445562,41.8992918 116.405639,41.2555335 115.5305,40.4310588 C114.655361,39.6065841 113.973445,38.6070647 113.484731,37.4324706 C112.996017,36.2578765 112.751664,34.9590659 112.751664,33.536 L112.751664,33.4682353 C112.751664,32.1355227 112.978969,30.8875352 113.433587,29.7242353 C113.888204,28.5609354 114.530342,27.5444749 115.360019,26.6748235 C116.189697,25.8051721 117.172793,25.1218848 118.309337,24.6249412 C119.445881,24.1279975 120.696061,23.8795294 122.059914,23.8795294 C123.651075,23.8795294 125.031956,24.1505855 126.202596,24.6927059 C127.373237,25.2348262 128.339285,25.9632895 129.100769,26.8781176 C129.862254,27.7929458 130.430518,28.8545822 130.805577,30.0630588 C131.180637,31.2715355 131.368164,32.553405 131.368164,33.9087059 L131.368164,34.5524706 C131.368164,34.7783541 131.356798,35.0042342 131.334068,35.2301176 L118.99126,35.2301176 C119.2413,36.2465933 119.712958,37.0032916 120.40625,37.5002353 C121.099542,37.997179 121.95762,38.2456471 122.98051,38.2456471 C123.75336,38.2456471 124.463689,38.098825 125.111519,37.8051765 C125.75935,37.5115279 126.412853,37.0371797 127.072048,36.3821176 L130.652144,39.3298824 C129.76564,40.4592998 128.668891,41.3628201 127.361866,42.0404706 C126.05484,42.718121 124.48075,43.0569412 122.639548,43.0569412 C121.184772,43.0569412 119.855035,42.8254141 118.650298,42.3623529 Z M125.299048,31.9435294 C125.185394,30.9270537 124.844436,30.1195324 124.276164,29.5209412 C123.707892,28.9223499 122.980514,28.6230588 122.09401,28.6230588 C121.230236,28.6230588 120.525589,28.9223499 119.980048,29.5209412 C119.434507,30.1195324 119.070818,30.9270537 118.888971,31.9435294 L125.299048,31.9435294 Z M146.234087,43.0230588 C145.529429,43.0230588 144.898657,42.9496478 144.34175,42.8028235 C143.784844,42.6559993 143.279089,42.4640012 142.824471,42.2268235 C142.369854,41.9896459 141.960704,41.7072958 141.59701,41.3797647 C141.233316,41.0522337 140.903723,40.7190605 140.608221,40.3802353 L140.608221,42.6164706 L134.129952,42.6164706 L134.129952,17.8823529 L140.608221,17.8823529 L140.608221,26.7256471 C140.926454,26.3416451 141.267412,25.980237 141.631106,25.6414118 C141.9948,25.3025865 142.398267,25.0032954 142.841519,24.7435294 C143.284772,24.4837634 143.784844,24.2748243 144.34175,24.1167059 C144.898657,23.9585874 145.518064,23.8795294 146.199991,23.8795294 C147.291073,23.8795294 148.330995,24.0997625 149.319789,24.5402353 C150.308582,24.9807081 151.178025,25.6075253 151.928144,26.4207059 C152.678264,27.2338864 153.27494,28.2277588 153.718193,29.4023529 C154.161445,30.576947 154.383068,31.8983456 154.383068,33.3665882 L154.383068,33.4343529 C154.383068,34.9251839 154.161445,36.2635235 153.718193,37.4494118 C153.27494,38.6353 152.683946,39.6404665 151.945193,40.4649412 C151.206439,41.2894159 150.342678,41.9218802 149.353885,42.3623529 C148.365091,42.8028257 147.325169,43.0230588 146.234087,43.0230588 Z M144.222414,37.6357647 C145.290765,37.6357647 146.188622,37.2517685 146.91601,36.4837647 C147.643398,35.7157609 148.007087,34.7105944 148.007087,33.4682353 L148.007087,33.4004706 C148.007087,32.1806998 147.643398,31.1868274 146.91601,30.4188235 C146.188622,29.6508197 145.290765,29.2668235 144.222414,29.2668235 C143.699603,29.2668235 143.210897,29.3684696 142.756279,29.5717647 C142.301661,29.7750598 141.903877,30.063057 141.562914,30.4357647 C141.22195,30.8084725 140.954867,31.2432916 140.761654,31.7402353 C140.568442,32.237179 140.471837,32.7905852 140.471837,33.4004706 L140.471837,33.4682353 C140.471837,34.0781207 140.568442,34.6371739 140.761654,35.1454118 C140.954867,35.6536496 141.22195,36.0941158 141.562914,36.4668235 C141.903877,36.8395313 142.301661,37.1275284 142.756279,37.3308235 C143.210897,37.5341187 143.699603,37.6357647 144.222414,37.6357647 Z M157.315337,24.2861176 L163.793606,24.2861176 L163.793606,42.6164706 L157.315337,42.6164706 L157.315337,24.2861176 Z M157.178952,17.8823529 L163.929991,17.8823529 L163.929991,22.6258824 L157.178952,22.6258824 L157.178952,17.8823529 Z M174.738471,42.9891765 C172.783615,42.9891765 171.260669,42.5261223 170.169587,41.6 C169.078504,40.6738777 168.532971,39.1153051 168.532971,36.9242353 L168.532971,29.4701176 L166.350818,29.4701176 L166.350818,24.2861176 L168.532971,24.2861176 L168.532971,19.6442353 L175.011241,19.6442353 L175.011241,24.2861176 L179.307356,24.2861176 L179.307356,29.4701176 L175.011241,29.4701176 L175.011241,35.6705882 C175.011241,36.3256503 175.158989,36.7943515 175.454491,37.0767059 C175.749992,37.3590602 176.193238,37.5002353 176.784241,37.5002353 C177.216127,37.5002353 177.636642,37.4437653 178.045798,37.3308235 C178.454954,37.2178818 178.852739,37.0710597 179.239164,36.8903529 L179.239164,41.9388235 C178.648161,42.2550604 177.97761,42.5091755 177.227491,42.7011765 C176.477371,42.8931774 175.647707,42.9891765 174.738471,42.9891765 L174.738471,42.9891765 Z" id="simplebit" sketch:type="MSShapeGroup"></path>
                <path d="M0,64 L197,64 L197,0 L0,0 L0,64 Z M0,3 L197,3 L194,0 L194,64 L197,61 L0,61 L3,64 L3,0 L0,3 Z" id="Rectangle-1" sketch:type="MSShapeGroup"></path>
            </g>
        </g>
    </g>
</svg>