<?xml version="1.0" encoding="UTF-8" standalone="no"?>
<svg width="198px" height="65px" viewBox="0 0 198 65" version="1.1" xmlns="http://www.w3.org/2000/svg" xmlns:xlink="http://www.w3.org/1999/xlink" xmlns:sketch="http://www.bohemiancoding.com/sketch/ns">
    <!-- Generator: Sketch 3.0.1 (7597) - http://www.bohemiancoding.com/sketch -->
    <title>Logo</title>
    <description>Created with Sketch.</description>
    <defs></defs>
    <g id="Page-1" stroke="none" stroke-width="1" fill="none" fill-rule="evenodd" sketch:type="MSPage">
        <g id="Dribbble-Shot" sketch:type="MSArtboardGroup" transform="translate(-103.000000, -80.000000)">
            <g id="Logo" sketch:type="MSLayerGroup" transform="translate(105.000000, 82.000000)">
                <rect id="Rectangle-3" stroke="#000000" stroke-width="3" stroke-linecap="square" sketch:type="MSShapeGroup" x="0" y="0" width="194" height="61"></rect>
                <path d="M25.7286154,41.1407059 C24.1601845,41.1407059 22.6372382,40.9204728 21.1597308,40.48 C19.6822234,40.0395272 18.2956603,39.3562399 17,38.4301176 L19.4208269,34.5336471 C20.4891784,35.2338859 21.5745618,35.7590571 22.6770096,36.1091765 C23.7794574,36.4592959 24.8080145,36.6343529 25.7627115,36.6343529 C26.8537939,36.6343529 27.3993269,36.3068268 27.3993269,35.6517647 L27.3993269,35.584 C27.3993269,35.2225864 27.149291,34.9402363 26.6492115,34.7369412 C26.1491321,34.533646 25.4103895,34.2964719 24.4329615,34.0254118 C23.5237262,33.7995283 22.6713309,33.5341192 21.87575,33.2291765 C21.0801691,32.9242338 20.3868876,32.5515316 19.7958846,32.1110588 C19.2048817,31.670586 18.7389056,31.1341208 18.3979423,30.5016471 C18.0569791,29.8691733 17.8865,29.089887 17.8865,28.1637647 L17.8865,28.096 C17.8865,27.124701 18.074027,26.2607097 18.4490865,25.504 C18.8241461,24.7472903 19.3412659,24.1148261 20.0004615,23.6065882 C20.6596571,23.0983504 21.4381782,22.7087072 22.3360481,22.4376471 C23.233918,22.1665869 24.2170139,22.0310588 25.2853654,22.0310588 C26.6492184,22.0310588 27.9903203,22.2174099 29.3087115,22.5901176 C30.6271027,22.9628254 31.8204562,23.4879966 32.8888077,24.1656471 L30.6725577,28.2315294 C29.7178606,27.7119974 28.7518126,27.2997662 27.7743846,26.9948235 C26.7969567,26.6898808 25.9445613,26.5374118 25.2171731,26.5374118 C24.7170937,26.5374118 24.3420397,26.6221168 24.092,26.7915294 C23.8419603,26.960942 23.7169423,27.1698811 23.7169423,27.4183529 L23.7169423,27.4861176 C23.7169423,27.8475312 23.9726609,28.1355283 24.4841058,28.3501176 C24.9955506,28.564707 25.7399759,28.8188221 26.7174038,29.1124706 C27.6266392,29.3609424 28.4790345,29.6376455 29.2746154,29.9425882 C30.0701963,30.2475309 30.7634778,30.6202331 31.3544808,31.0607059 C31.9454837,31.5011787 32.4114598,32.0376439 32.7524231,32.6701176 C33.0933863,33.3025914 33.2638654,34.0592897 33.2638654,34.9402353 L33.2638654,35.008 C33.2638654,36.0244757 33.082021,36.911055 32.7183269,37.6677647 C32.3546328,38.4244744 31.8431956,39.0625856 31.184,39.5821176 C30.5248044,40.1016497 29.7292354,40.4912928 28.7972692,40.7510588 C27.865303,41.0108248 26.8424286,41.1407059 25.7286154,41.1407059 Z M36.05975,22.4037647 L42.5380192,22.4037647 L42.5380192,40.7341176 L36.05975,40.7341176 L36.05975,22.4037647 Z M35.9233654,16 L42.6744038,16 L42.6744038,20.7435294 L35.9233654,20.7435294 L35.9233654,16 Z M46.1522115,22.4037647 L52.6304808,22.4037647 L52.6304808,24.9110588 C53.2214837,24.143055 53.9602263,23.4654147 54.8467308,22.8781176 C55.7332352,22.2908206 56.8243012,21.9971765 58.1199615,21.9971765 C59.3474292,21.9971765 60.4157647,22.2569386 61.325,22.7764706 C62.2342353,23.2960026 62.9388821,24.0301129 63.4389615,24.9788235 C64.2345424,24.0527013 65.1210336,23.3242379 66.0984615,22.7934118 C67.0758895,22.2625856 68.2465124,21.9971765 69.6103654,21.9971765 C71.5879522,21.9971765 73.133629,22.5788177 74.2474423,23.7421176 C75.3612556,24.9054176 75.9181538,26.5599893 75.9181538,28.7058824 L75.9181538,40.7341176 L69.4398846,40.7341176 L69.4398846,30.7727059 C69.4398846,29.7562302 69.2125792,28.9938849 68.7579615,28.4856471 C68.3033439,27.9774092 67.6896192,27.7232941 66.9167692,27.7232941 C66.1439192,27.7232941 65.507464,27.9774092 65.0073846,28.4856471 C64.5073052,28.9938849 64.2572692,29.7562302 64.2572692,30.7727059 L64.2572692,40.7341176 L57.779,40.7341176 L57.779,30.7727059 C57.779,29.7562302 57.5516946,28.9938849 57.0970769,28.4856471 C56.6424593,27.9774092 56.0287346,27.7232941 55.2558846,27.7232941 C54.4830346,27.7232941 53.8522621,27.9774092 53.3635481,28.4856471 C52.8748341,28.9938849 52.6304808,29.7562302 52.6304808,30.7727059 L52.6304808,40.7341176 L46.1522115,40.7341176 L46.1522115,22.4037647 Z M79.2595769,22.4037647 L85.7378462,22.4037647 L85.7378462,24.8432941 C86.0560785,24.4592922 86.3970366,24.097884 86.7607308,23.7590588 C87.1244249,23.4202336 87.527892,23.1209425 87.9711442,22.8611765 C88.4143964,22.6014105 88.9144684,22.3924714 89.471375,22.2343529 C90.0282816,22.0762345 90.6476889,21.9971765 91.3296154,21.9971765 C92.4206978,21.9971765 93.4606201,22.2174096 94.4494135,22.6578824 C95.4382069,23.0983551 96.3076501,23.7251724 97.0577692,24.5383529 C97.8078884,25.3515335 98.4045651,26.3454059 98.8478173,27.52 C99.2910695,28.6945941 99.5126923,30.0159927 99.5126923,31.4842353 L99.5126923,31.552 C99.5126923,33.042831 99.2910695,34.3811705 98.8478173,35.5670588 C98.4045651,36.7529471 97.813571,37.7581135 97.0748173,38.5825882 C96.3360636,39.4070629 95.472303,40.0395272 94.4835096,40.48 C93.4947162,40.9204728 92.4547939,41.1407059 91.3637115,41.1407059 C90.6590542,41.1407059 90.0282816,41.0672949 89.471375,40.9204706 C88.9144684,40.7736463 88.4087138,40.5816482 87.9540962,40.3444706 C87.4994785,40.1072929 87.0903287,39.8249428 86.7266346,39.4974118 C86.3629405,39.1698807 86.0333476,38.8367076 85.7378462,38.4978824 L85.7378462,46.1552941 L79.2595769,46.1552941 L79.2595769,22.4037647 Z M89.3520385,35.7534118 C90.42039,35.7534118 91.3182464,35.3694156 92.0456346,34.6014118 C92.7730229,33.8334079 93.1367115,32.8282415 93.1367115,31.5858824 L93.1367115,31.5181176 C93.1367115,30.2983468 92.7730229,29.3044744 92.0456346,28.5364706 C91.3182464,27.7684667 90.42039,27.3844706 89.3520385,27.3844706 C88.8292282,27.3844706 88.3405215,27.4861166 87.8859038,27.6894118 C87.4312862,27.8927069 87.0335017,28.180704 86.6925385,28.5534118 C86.3515752,28.9261195 86.0844914,29.3609387 85.8912788,29.8578824 C85.6980663,30.354826 85.6014615,30.9082322 85.6014615,31.5181176 L85.6014615,31.5858824 C85.6014615,32.1957678 85.6980663,32.754821 85.8912788,33.2630588 C86.0844914,33.7712967 86.3515752,34.2117628 86.6925385,34.5844706 C87.0335017,34.9571783 87.4312862,35.2451755 87.8859038,35.4484706 C88.3405215,35.6517657 88.8292282,35.7534118 89.3520385,35.7534118 Z M102.444962,16 L108.923231,16 L108.923231,40.7341176 L102.444962,40.7341176 L102.444962,16 Z M117.685942,40.48 C116.481206,40.0169389 115.441283,39.3731806 114.566144,38.5487059 C113.691005,37.7242312 113.009089,36.7247118 112.520375,35.5501176 C112.031661,34.3755235 111.787308,33.076713 111.787308,31.6536471 L111.787308,31.5858824 C111.787308,30.2531698 112.014613,29.0051823 112.469231,27.8418824 C112.923848,26.6785824 113.565986,25.662122 114.395663,24.7924706 C115.225341,23.9228192 116.208437,23.2395319 117.344981,22.7425882 C118.481525,22.2456446 119.731705,21.9971765 121.095558,21.9971765 C122.686719,21.9971765 124.0676,22.2682326 125.23824,22.8103529 C126.408881,23.3524733 127.374929,24.0809366 128.136413,24.9957647 C128.897898,25.9105928 129.466162,26.9722293 129.841221,28.1807059 C130.216281,29.3891825 130.403808,30.671052 130.403808,32.0263529 L130.403808,32.6701176 C130.403808,32.8960011 130.392442,33.1218812 130.369712,33.3477647 L118.026904,33.3477647 C118.276944,34.3642404 118.748602,35.1209387 119.441894,35.6178824 C120.135186,36.114826 120.993264,36.3632941 122.016154,36.3632941 C122.789004,36.3632941 123.499333,36.2164721 124.147163,35.9228235 C124.794994,35.629175 125.448497,35.1548268 126.107692,34.4997647 L129.687788,37.4475294 C128.801284,38.5769468 127.704535,39.4804672 126.39751,40.1581176 C125.090484,40.8357681 123.516394,41.1745882 121.675192,41.1745882 C120.220416,41.1745882 118.890679,40.9430611 117.685942,40.48 Z M124.334692,30.0611765 C124.221038,29.0447008 123.88008,28.2371795 123.311808,27.6385882 C122.743536,27.039997 122.016158,26.7407059 121.129654,26.7407059 C120.26588,26.7407059 119.561233,27.039997 119.015692,27.6385882 C118.470151,28.2371795 118.106462,29.0447008 117.924615,30.0611765 L124.334692,30.0611765 Z M145.269731,41.1407059 C144.565073,41.1407059 143.934301,41.0672949 143.377394,40.9204706 C142.820488,40.7736463 142.314733,40.5816482 141.860115,40.3444706 C141.405498,40.1072929 140.996348,39.8249428 140.632654,39.4974118 C140.26896,39.1698807 139.939367,38.8367076 139.643865,38.4978824 L139.643865,40.7341176 L133.165596,40.7341176 L133.165596,16 L139.643865,16 L139.643865,24.8432941 C139.962098,24.4592922 140.303056,24.097884 140.66675,23.7590588 C141.030444,23.4202336 141.433911,23.1209425 141.877163,22.8611765 C142.320416,22.6014105 142.820488,22.3924714 143.377394,22.2343529 C143.934301,22.0762345 144.553708,21.9971765 145.235635,21.9971765 C146.326717,21.9971765 147.366639,22.2174096 148.355433,22.6578824 C149.344226,23.0983551 150.213669,23.7251724 150.963788,24.5383529 C151.713908,25.3515335 152.310584,26.3454059 152.753837,27.52 C153.197089,28.6945941 153.418712,30.0159927 153.418712,31.4842353 L153.418712,31.552 C153.418712,33.042831 153.197089,34.3811705 152.753837,35.5670588 C152.310584,36.7529471 151.71959,37.7581135 150.980837,38.5825882 C150.242083,39.4070629 149.378322,40.0395272 148.389529,40.48 C147.400735,40.9204728 146.360813,41.1407059 145.269731,41.1407059 Z M143.258058,35.7534118 C144.326409,35.7534118 145.224266,35.3694156 145.951654,34.6014118 C146.679042,33.8334079 147.042731,32.8282415 147.042731,31.5858824 L147.042731,31.5181176 C147.042731,30.2983468 146.679042,29.3044744 145.951654,28.5364706 C145.224266,27.7684667 144.326409,27.3844706 143.258058,27.3844706 C142.735247,27.3844706 142.246541,27.4861166 141.791923,27.6894118 C141.337305,27.8927069 140.939521,28.180704 140.598558,28.5534118 C140.257594,28.9261195 139.990511,29.3609387 139.797298,29.8578824 C139.604086,30.354826 139.507481,30.9082322 139.507481,31.5181176 L139.507481,31.5858824 C139.507481,32.1957678 139.604086,32.754821 139.797298,33.2630588 C139.990511,33.7712967 140.257594,34.2117628 140.598558,34.5844706 C140.939521,34.9571783 141.337305,35.2451755 141.791923,35.4484706 C142.246541,35.6517657 142.735247,35.7534118 143.258058,35.7534118 Z M156.350981,22.4037647 L162.82925,22.4037647 L162.82925,40.7341176 L156.350981,40.7341176 L156.350981,22.4037647 Z M156.214596,16 L162.965635,16 L162.965635,20.7435294 L156.214596,20.7435294 L156.214596,16 Z M173.774115,41.1068235 C171.819259,41.1068235 170.296313,40.6437693 169.205231,39.7176471 C168.114148,38.7915248 167.568615,37.2329521 167.568615,35.0418824 L167.568615,27.5877647 L165.386462,27.5877647 L165.386462,22.4037647 L167.568615,22.4037647 L167.568615,17.7618824 L174.046885,17.7618824 L174.046885,22.4037647 L178.343,22.4037647 L178.343,27.5877647 L174.046885,27.5877647 L174.046885,33.7882353 C174.046885,34.4432974 174.194633,34.9119986 174.490135,35.1943529 C174.785636,35.4767073 175.228882,35.6178824 175.819885,35.6178824 C176.251771,35.6178824 176.672286,35.5614123 177.081442,35.4484706 C177.490598,35.3355288 177.888383,35.1887068 178.274808,35.008 L178.274808,40.0564706 C177.683805,40.3727075 177.013254,40.6268226 176.263135,40.8188235 C175.513015,41.0108245 174.683351,41.1068235 173.774115,41.1068235 L173.774115,41.1068235 Z" id="simplebit" fill="#000000" sketch:type="MSShapeGroup"></path>
            </g>
        </g>
    </g>
</svg>