<?xml version="1.0" encoding="utf-8"?>
<!-- Generator: Adobe Illustrator 16.0.0, SVG Export Plug-In . SVG Version: 6.00 Build 0)  -->
<!DOCTYPE svg PUBLIC "-//W3C//DTD SVG 1.1//EN" "http://www.w3.org/Graphics/SVG/1.1/DTD/svg11.dtd">
<svg version="1.1" id="Filled_Version" xmlns="http://www.w3.org/2000/svg" xmlns:xlink="http://www.w3.org/1999/xlink" x="0px"
	 y="0px" width="24px" height="24px" viewBox="0 0 24 24" enable-background="new 0 0 24 24" xml:space="preserve">
<g>
	<path d="M18.5,12H18v-0.5c0-0.275-0.224-0.5-0.5-0.5h-13C4.224,11,4,11.225,4,11.5v10C4,22.879,5.122,24,6.5,24h9
		c1.378,0,2.5-1.121,2.5-2.5V19h0.5c1.93,0,3.5-1.569,3.5-3.5C22,13.57,20.43,12,18.5,12z M18.5,18H18v-5h0.5
		c1.378,0,2.5,1.121,2.5,2.5S19.878,18,18.5,18z"/>
	<path d="M14.5,10h2c0.19,0,0.365-0.108,0.449-0.28l1.523-3.104c1.007-0.144,1.764-1.041,1.918-2.335
		c0.195-1.64-0.626-3.654-2.892-4.202c-0.201-0.048-0.408,0.031-0.527,0.197c-0.118,0.168-0.121,0.391-0.009,0.563
		c0.528,0.806,0.209,1.282-0.354,1.993c-0.215,0.271-0.419,0.529-0.541,0.82c-0.235,0.555-0.247,1.141-0.035,1.646
		c0.093,0.222,0.234,0.421,0.404,0.599l-1.975,2.79c-0.028,0.07-0.071,0.128-0.125,0.178l-0.245,0.346
		c-0.108,0.153-0.122,0.353-0.036,0.518C14.142,9.895,14.313,10,14.5,10z M16.989,4.04c0.07-0.166,0.232-0.371,0.404-0.586
		c0.38-0.48,0.897-1.133,0.839-1.982c0.938,0.64,1.278,1.748,1.166,2.69c-0.083,0.684-0.447,1.482-1.208,1.482h0l-0.853-0.283
		c-0.174-0.123-0.306-0.273-0.381-0.45C16.846,4.651,16.858,4.351,16.989,4.04z"/>
	<path d="M3.757,4.072C3.59,3.971,3.38,3.977,3.218,4.086C3.057,4.197,2.975,4.39,3.007,4.582l0.465,2.792l2.422-2.02L3.757,4.072z"
		/>
	<path d="M5.5,10h3c0.003,0,0.006,0,0.01,0c0.267,0,0.481-0.211,0.495-0.475C9.019,9.789,9.232,10,9.5,10h4
		c0.276,0,0.5-0.223,0.5-0.5V9h-1h-0.25c-0.276,0-0.5-0.223-0.5-0.5c0-0.276,0.224-0.5,0.5-0.5H14V7h-2.5C11.224,7,11,6.777,11,6.5
		C11,6.224,11.224,6,11.5,6H14V5h-1.25c-0.276,0-0.5-0.223-0.5-0.5c0-0.276,0.224-0.5,0.5-0.5H14V3h-2.5C11.224,3,11,2.777,11,2.5
		C11,2.224,11.224,2,11.5,2H14V0.5C14,0.224,13.776,0,13.5,0h-4C9.224,0,9,0.224,9,0.5v8.952c-0.012-0.12-0.06-0.231-0.142-0.311
		L6.639,6.035L3.955,8.272L5.1,9.8C5.194,9.926,5.342,10,5.5,10z"/>
</g>
</svg>
