<?xml version="1.0" encoding="UTF-8" standalone="no"?>
<svg width="30px" height="33px" viewBox="0 0 30 33" version="1.1" xmlns="http://www.w3.org/2000/svg" xmlns:xlink="http://www.w3.org/1999/xlink">
    <!-- Generator: Sketch 3.6.1 (26313) - http://www.bohemiancoding.com/sketch -->
    <title>Logo</title>
    <desc>Created with Sketch.</desc>
    <defs></defs>
    <g id="Desktop" stroke="none" stroke-width="1" fill="none" fill-rule="evenodd">
        <g id="Homepage" transform="translate(-111.000000, -89.000000)" fill="#34495E">
            <g id="Menu" transform="translate(111.000000, 89.000000)">
                <g id="Group-2">
                    <path d="M25.5747314,13.4658831 L25.4865546,13.397236 L25.5628781,13.3155404 C26.7201621,12.1235781 27.3547457,10.5724954 27.358504,8.94312096 C27.3547457,7.23261824 26.6178192,5.72209966 25.5304985,4.54318601 C24.6050761,3.53674096 23.802523,2.73793902 22.7568332,1.81545895 C21.5451978,0.743770837 19.9993579,0 18.2459412,0 L10.7656604,0 C4.83006305,0 0,4.73778052 0,10.5605814 C0,16.3830987 4.83006305,21.1183262 10.7656604,21.1183262 L16.091537,21.1194608 C17.279466,21.1194608 18.2459412,20.1705999 18.2459412,19.0055858 C18.2459412,17.8411391 17.279466,16.8928455 16.091537,16.8928455 L10.7656604,16.8911435 C7.2085229,16.8911435 4.30823006,14.0516522 4.3114102,10.5571774 C4.3114102,7.07036159 7.20505365,4.22661536 10.7656604,4.22803368 L18.4734661,4.22803368 C19.6642861,4.22803368 20.6310504,5.17859664 20.6310504,6.34644734 C20.6310504,7.4760032 19.7276,8.39819961 18.5714725,8.44982673 C18.539671,8.44982673 10.7624802,8.44472075 10.7624802,8.44472075 C9.5759968,8.44472075 8.61125624,9.39414904 8.61125624,10.5605814 C8.61125624,11.7255955 9.57281665,12.6727544 10.7624802,12.6758748 L16.2068896,12.6758748 C19.7108319,12.7297712 22.5440526,15.5613198 22.5440526,19.0143795 C22.5440526,22.50233 19.6518547,25.3395519 16.0981864,25.3395519 L4.85839526,25.3395519 C3.66757526,25.3395519 2.70428023,26.2875619 2.70428023,27.4517249 C2.70428023,27.9535291 2.88034466,28.4144855 3.18708416,28.7721876 C3.92950362,29.6362326 4.43485768,30.1598791 5.30824132,30.9337184 C5.93212808,31.4868661 6.74133059,32.1628409 8.538402,32.1628409 L18.745224,32.1636919 C24.6744611,32.1611389 29.5019222,27.428748 29.5019222,21.6116204 C29.5019222,18.4496015 28.0694111,15.4824608 25.5747314,13.4658831" id="Logo"></path>
                </g>
            </g>
        </g>
    </g>
</svg>