<?xml version="1.0" standalone="no"?>
<!DOCTYPE svg PUBLIC "-//W3C//DTD SVG 20010904//EN"
 "http://www.w3.org/TR/2001/REC-SVG-20010904/DTD/svg10.dtd">
<svg version="1.0" xmlns="http://www.w3.org/2000/svg"
 width="512.000000pt" height="512.000000pt" viewBox="0 0 512.000000 512.000000"
 preserveAspectRatio="xMidYMid meet">
<metadata>
Created by potrace 1.11, written by Peter Selinger 2001-2013
</metadata>
<g transform="translate(0.000000,512.000000) scale(0.100000,-0.100000)"
fill="#000000" stroke="none">
<path d="M1978 4164 c-398 -72 -728 -380 -835 -782 -24 -86 -27 -116 -26 -262
0 -181 11 -241 72 -395 105 -262 320 -476 588 -585 167 -67 300 -83 685 -78
267 3 285 4 323 25 76 41 115 105 115 190 -1 95 -66 180 -156 202 -26 7 -159
11 -342 11 -167 0 -324 5 -358 11 -32 5 -101 31 -152 55 -161 78 -278 215
-332 389 -28 90 -30 241 -6 334 59 220 223 387 451 458 55 16 101 18 520 18
l460 0 47 -28 c58 -34 99 -99 106 -168 9 -98 -65 -195 -168 -218 -27 -6 -210
-11 -451 -11 -405 0 -406 0 -450 -23 -126 -67 -147 -244 -39 -341 21 -19 56
-39 77 -45 23 -7 159 -11 343 -11 349 0 399 -7 525 -69 151 -75 268 -212 321
-375 38 -116 38 -266 0 -382 -53 -163 -167 -297 -320 -374 -137 -69 -146 -70
-826 -70 -565 0 -608 -2 -645 -19 -112 -51 -160 -185 -102 -289 31 -58 163
-199 252 -271 130 -105 102 -101 814 -101 553 0 614 2 696 19 418 87 738 410
826 833 18 86 20 125 16 238 -11 281 -113 517 -308 712 l-80 81 24 26 c115
123 178 342 148 517 -29 163 -98 272 -305 480 -199 198 -296 263 -450 299 -86
21 -944 20 -1058 -1z"/>
</g>
</svg>
